<svg xmlns="http://www.w3.org/2000/svg" viewBox="0 0 600 200" preserveAspectRatio="none" width="100%" height="100%"><defs><linearGradient id="a3" x1="0" y1="0" x2="1" y2="1"><stop offset="0%" stop-color="#000428"/><stop offset="100%" stop-color="#004e92"/></linearGradient><linearGradient id="ar3" x1="0" y1="0" x2="0" y2="1"><stop offset="0%" stop-color="rgba(56,239,125,0.45)"/><stop offset="100%" stop-color="rgba(56,239,125,0.02)"/></linearGradient><linearGradient id="ln3" x1="0" y1="0" x2="1" y2="0"><stop offset="0%" stop-color="#f093fb"/><stop offset="100%" stop-color="#38ef7d"/></linearGradient><filter id="gl3" x="-20%" y="-20%" width="140%" height="140%"><feGaussianBlur stdDeviation="5" result="b"/><feMerge><feMergeNode in="b"/><feMergeNode in="SourceGraphic"/></feMerge></filter></defs><rect width="600" height="200" fill="url(#a3)"/><circle cx="20" cy="18" r="1" fill="rgba(255,255,255,0.5)"/><circle cx="80" cy="8" r="1.5" fill="rgba(255,255,255,0.4)"/><circle cx="290" cy="6" r="1" fill="rgba(255,255,255,0.6)"/><circle cx="490" cy="12" r="1" fill="rgba(255,255,255,0.4)"/><circle cx="570" cy="22" r="1.5" fill="rgba(255,255,255,0.3)"/><line x1="0" y1="50" x2="600" y2="50" stroke="rgba(255,255,255,0.04)" stroke-width="1"/><line x1="0" y1="100" x2="600" y2="100" stroke="rgba(255,255,255,0.04)" stroke-width="1"/><line x1="0" y1="150" x2="600" y2="150" stroke="rgba(255,255,255,0.04)" stroke-width="1"/><!-- Area chart --><polygon points="0,186 80,178 160,168 240,148 320,122 400,90 480,55 600,18 600,186" fill="url(#ar3)"/><polyline points="0,186 80,178 160,168 240,148 320,122 400,90 480,55 600,18" fill="none" stroke="url(#ln3)" stroke-width="3" stroke-linecap="round" stroke-linejoin="round"/><!-- Markers --><circle cx="0" cy="186" r="5" fill="#ef4444"/><circle cx="600" cy="18" r="7" fill="#38ef7d" filter="url(#gl3)"/><text x="8" y="182" font-family="Arial,sans-serif" font-size="8" fill="#ef4444" font-weight="bold">3.2K</text><text x="570" y="14" font-family="Arial,sans-serif" font-size="8" fill="#38ef7d" font-weight="bold">16K</text><!-- Central stat box --><rect x="170" y="22" width="200" height="86" rx="12" fill="rgba(0,0,0,0.55)" stroke="rgba(255,255,255,0.1)" stroke-width="1"/><text x="270" y="44" font-family="Arial,sans-serif" font-size="10" fill="rgba(255,255,255,0.45)" text-anchor="middle">ORGANIC TRAFFIC</text><text x="270" y="82" font-family="Arial,sans-serif" font-size="40" font-weight="900" fill="#38ef7d" text-anchor="middle">+400%</text><text x="270" y="100" font-family="Arial,sans-serif" font-size="10" fill="rgba(255,255,255,0.55)" text-anchor="middle">12 → 140+ Page 1 Keywords</text><!-- Pills --><rect x="30" y="154" width="74" height="14" rx="7" fill="rgba(240,147,251,0.2)" stroke="rgba(240,147,251,0.4)" stroke-width="1"/><text x="67" y="164" font-family="Arial,sans-serif" font-size="7.5" fill="#f0abfc" text-anchor="middle" font-weight="bold">8 Languages</text><rect x="112" y="154" width="82" height="14" rx="7" fill="rgba(56,239,125,0.15)" stroke="rgba(56,239,125,0.4)" stroke-width="1"/><text x="153" y="164" font-family="Arial,sans-serif" font-size="7.5" fill="#38ef7d" text-anchor="middle" font-weight="bold">200+ Backlinks</text><rect x="202" y="154" width="80" height="14" rx="7" fill="rgba(96,165,250,0.15)" stroke="rgba(96,165,250,0.4)" stroke-width="1"/><text x="242" y="164" font-family="Arial,sans-serif" font-size="7.5" fill="#93c5fd" text-anchor="middle" font-weight="bold">AU + USA Traffic</text><rect x="290" y="154" width="80" height="14" rx="7" fill="rgba(251,191,36,0.15)" stroke="rgba(251,191,36,0.4)" stroke-width="1"/><text x="330" y="164" font-family="Arial,sans-serif" font-size="7.5" fill="#fbbf24" text-anchor="middle" font-weight="bold">Tech SEO Rebuilt</text><text x="500" y="70" font-family="Arial,sans-serif" font-size="30" filter="url(#gl3)">✈️</text><rect x="0" y="186" width="600" height="14" fill="rgba(52,211,153,0.12)"/><text x="300" y="197" font-family="Arial,sans-serif" font-size="8" fill="rgba(255,255,255,0.65)" text-anchor="middle" font-weight="bold">TRAVEL &amp; HOSPITALITY  ·  SEO + CONTENT  ·  8 LANGUAGES  ·  400% TRAFFIC</text></svg>