<svg xmlns="http://www.w3.org/2000/svg" viewBox="0 0 600 200" preserveAspectRatio="none" width="100%" height="100%"><defs><linearGradient id="a6" x1="0" y1="0" x2="1" y2="1"><stop offset="0%" stop-color="#030f1a"/><stop offset="100%" stop-color="#0a1f35"/></linearGradient><linearGradient id="b6" x1="0" y1="0" x2="1" y2="0"><stop offset="0%" stop-color="#7c3aed"/><stop offset="100%" stop-color="#06b6d4"/></linearGradient><linearGradient id="c6" x1="0" y1="0" x2="1" y2="0"><stop offset="0%" stop-color="#c084fc"/><stop offset="100%" stop-color="#34d399"/></linearGradient><filter id="gl6" x="-20%" y="-20%" width="140%" height="140%"><feGaussianBlur stdDeviation="4" result="b"/><feMerge><feMergeNode in="b"/><feMergeNode in="SourceGraphic"/></feMerge></filter></defs><rect width="600" height="200" fill="url(#a6)"/><polyline points="0,100 35,100 50,68 65,132 80,100 600,100" fill="none" stroke="rgba(192,132,252,0.07)" stroke-width="2"/><!-- Left: rank panel --><rect x="10" y="10" width="150" height="178" rx="8" fill="rgba(0,0,0,0.4)" stroke="rgba(124,58,237,0.22)" stroke-width="1"/><text x="85" y="28" font-family="Arial,sans-serif" font-size="8" fill="rgba(255,255,255,0.3)" text-anchor="middle" font-weight="bold">GOOGLE MAPS RANK</text><text x="85" y="48" font-family="Arial,sans-serif" font-size="7.5" fill="rgba(239,68,68,0.7)" text-anchor="middle">BEFORE</text><rect x="18" y="52" width="134" height="13" rx="6" fill="rgba(255,255,255,0.04)"/><rect x="18" y="52" width="13" height="13" rx="6" fill="rgba(239,68,68,0.6)"/><text x="145" y="62" font-family="Arial,sans-serif" font-size="9" fill="#ef4444" font-weight="bold">#18</text><text x="85" y="80" font-family="Arial,sans-serif" font-size="7.5" fill="rgba(52,211,153,0.7)" text-anchor="middle">AFTER</text><rect x="18" y="84" width="134" height="13" rx="6" fill="rgba(255,255,255,0.04)"/><rect x="18" y="84" width="128" height="13" rx="6" fill="url(#c6)"/><text x="145" y="94" font-family="Arial,sans-serif" font-size="9" fill="#34d399" font-weight="bold">#1</text><rect x="72" y="108" width="26" height="8" rx="4" fill="rgba(192,132,252,0.55)"/><rect x="81" y="102" width="8" height="20" rx="4" fill="rgba(192,132,252,0.55)"/><text x="85" y="142" font-family="Arial,sans-serif" font-size="8" fill="rgba(255,255,255,0.3)" text-anchor="middle">12 Clinic Locations</text><text x="85" y="156" font-family="Arial,sans-serif" font-size="8" fill="rgba(192,132,252,0.7)" text-anchor="middle" font-weight="bold">All Top 3 Ranked</text><text x="85" y="170" font-family="Arial,sans-serif" font-size="7.5" fill="rgba(255,255,255,0.22)" text-anchor="middle">AU Multi-City Campaign</text><!-- Center --><text x="310" y="36" font-family="Arial,sans-serif" font-size="10" fill="rgba(255,255,255,0.35)" text-anchor="middle" font-weight="bold">ONLINE PATIENT BOOKINGS</text><text x="310" y="94" font-family="Arial,sans-serif" font-size="56" font-weight="900" fill="url(#b6)" text-anchor="middle" filter="url(#gl6)">8×</text><text x="310" y="114" font-family="Arial,sans-serif" font-size="11" fill="rgba(255,255,255,0.5)" text-anchor="middle">Growth in Patient Bookings</text><text x="200" y="132" font-family="Arial,sans-serif" font-size="8.5" fill="rgba(255,255,255,0.3)">Before:</text><rect x="244" y="124" width="162" height="10" rx="5" fill="rgba(255,255,255,0.04)"/><rect x="244" y="124" width="20" height="10" rx="5" fill="rgba(239,68,68,0.55)"/><text x="410" y="133" font-family="Arial,sans-serif" font-size="8.5" fill="#ef4444">60/mo</text><text x="200" y="152" font-family="Arial,sans-serif" font-size="8.5" fill="rgba(255,255,255,0.3)">After:</text><rect x="244" y="144" width="162" height="10" rx="5" fill="rgba(255,255,255,0.04)"/><rect x="244" y="144" width="155" height="10" rx="5" fill="url(#c6)"/><text x="410" y="153" font-family="Arial,sans-serif" font-size="8.5" fill="#34d399" font-weight="bold">480/mo</text><!-- Right --><rect x="442" y="10" width="148" height="78" rx="8" fill="rgba(124,58,237,0.12)" stroke="rgba(124,58,237,0.25)" stroke-width="1"/><text x="516" y="28" font-family="Arial,sans-serif" font-size="8" fill="rgba(255,255,255,0.35)" text-anchor="middle" font-weight="bold">REVENUE IMPACT</text><text x="516" y="62" font-family="Arial,sans-serif" font-size="26" font-weight="900" fill="#c084fc" text-anchor="middle" filter="url(#gl6)">$4.2M</text><text x="516" y="78" font-family="Arial,sans-serif" font-size="7.5" fill="rgba(255,255,255,0.28)" text-anchor="middle">annual patient value</text><rect x="442" y="98" width="148" height="78" rx="8" fill="rgba(6,182,212,0.1)" stroke="rgba(6,182,212,0.22)" stroke-width="1"/><text x="516" y="116" font-family="Arial,sans-serif" font-size="8" fill="rgba(255,255,255,0.35)" text-anchor="middle" font-weight="bold">LOCAL SEO RANK</text><text x="516" y="152" font-family="Arial,sans-serif" font-size="28" font-weight="900" fill="#06b6d4" text-anchor="middle">#1</text><text x="516" y="168" font-family="Arial,sans-serif" font-size="7.5" fill="rgba(255,255,255,0.28)" text-anchor="middle">Google Maps · 12 Cities</text><rect x="0" y="186" width="600" height="14" fill="rgba(124,58,237,0.15)"/><text x="300" y="197" font-family="Arial,sans-serif" font-size="8" fill="rgba(255,255,255,0.65)" text-anchor="middle" font-weight="bold">HEALTHCARE  ·  8× BOOKINGS  ·  #1 GOOGLE MAPS  ·  12 LOCATIONS</text></svg>